HIERARCHY
ROOT SpineBase
{
  OFFSET 0.000000 0.000000 0.000000
  CHANNELS 6 Xposition Yposition Zposition Zrotation Xrotation Yrotation
  JOINT SpineMid
  {
    OFFSET 0.000000 31.156431 0.000000
    CHANNELS 3 Zrotation Xrotation Yrotation
    JOINT SpineShoulder
    {
      OFFSET 0.151015 23.102105 -0.817047
      CHANNELS 3 Zrotation Xrotation Yrotation
      JOINT Neck
      {
        OFFSET 0.080882 7.638474 -0.618563
        CHANNELS 3 Zrotation Xrotation Yrotation
        JOINT Head
        {
          OFFSET 8.254828 10.660973 2.935301
          CHANNELS 3 Zrotation Xrotation Yrotation
          End Site
          {
            OFFSET 0 0 0
          }
        }
      }
      JOINT ShoulderLeft
      {
        OFFSET -5.295859 -4.450035 -12.683908
        CHANNELS 3 Zrotation Xrotation Yrotation
        JOINT ElbowLeft
        {
          OFFSET -1.536012 -24.737635 -6.516862
          CHANNELS 3 Zrotation Xrotation Yrotation
          JOINT WristLeft
          {
            OFFSET 3.837661 -25.168365 -1.512011
            CHANNELS 3 Zrotation Xrotation Yrotation
            JOINT HandLeft
            {
              OFFSET 0.296938 -6.859152 0.458913
              CHANNELS 3 Zrotation Xrotation Yrotation
              JOINT HandTipLeft
              {
                OFFSET 1.405256 -7.623904 -0.414410
                CHANNELS 3 Zrotation Xrotation Yrotation
                End Site
                {
                  OFFSET 0 0 0
                }
              }
              JOINT ThumbLeft
              {
                OFFSET -3.341675 0.276357 -0.235709
                CHANNELS 3 Zrotation Xrotation Yrotation
                End Site
                {
                  OFFSET 0 0 0
                }
              }
            }
          }
        }
      }
      JOINT ShoulderRight
      {
        OFFSET 7.009705 -5.939752 11.348282
        CHANNELS 3 Zrotation Xrotation Yrotation
        JOINT ElbowRight
        {
          OFFSET 3.427844 -30.398769 6.482144
          CHANNELS 3 Zrotation Xrotation Yrotation
          JOINT WristRight
          {
            OFFSET -2.340457 -29.186072 -5.084488
            CHANNELS 3 Zrotation Xrotation Yrotation
            JOINT HandRight
            {
              OFFSET 1.597710 -2.075097 3.637104
              CHANNELS 3 Zrotation Xrotation Yrotation
              JOINT HandTipRight
              {
                OFFSET -0.993324 -4.037969 -1.038466
                CHANNELS 3 Zrotation Xrotation Yrotation
                End Site
                {
                  OFFSET 0 0 0
                }
              }
              JOINT ThumbRight
              {
                OFFSET 1.905408 2.039676 -1.004749
                CHANNELS 3 Zrotation Xrotation Yrotation
                End Site
                {
                  OFFSET 0 0 0
                }
              }
            }
          }
        }
      }
    }
  }
  JOINT HipLeft
  {
    OFFSET -2.480146 1.475770 -8.809988
    CHANNELS 3 Zrotation Xrotation Yrotation
    JOINT KneeLeft
    {
      OFFSET -5.978697 -36.846464 -5.153007
      CHANNELS 3 Zrotation Xrotation Yrotation
      JOINT AnkleLeft
      {
        OFFSET -10.413507 -38.929293 2.370522
        CHANNELS 3 Zrotation Xrotation Yrotation
        JOINT FootLeft
        {
          OFFSET 9.444127 -3.821337 -7.980056
          CHANNELS 3 Zrotation Xrotation Yrotation
          End Site
          {
            OFFSET 0 0 0
          }
        }
      }
    }
  }
  JOINT HipRight
  {
    OFFSET 3.178666 0.619600 1.807313
    CHANNELS 3 Zrotation Xrotation Yrotation
    JOINT KneeRight
    {
      OFFSET 0.370211 -36.032701 9.636537
      CHANNELS 3 Zrotation Xrotation Yrotation
      JOINT AnkleRight
      {
        OFFSET -16.380183 -40.143480 -0.010207
        CHANNELS 3 Zrotation Xrotation Yrotation
        JOINT FootRight
        {
          OFFSET 3.065031 -6.771027 0.028090
          CHANNELS 3 Zrotation Xrotation Yrotation
          End Site
          {
            OFFSET 0 0 0
          }
        }
      }
    }
  }
}
MOTION
Frames: 6
Frame Time: 0.033333
-25.321902 92.500730 292.320728 -0.000000 0.000000 -61.943266 -0.000000 0.000000 61.943266 -0.000000 0.000000 0.000000 -0.000000 0.000000 0.000000 0.000000 0.000000 0.000000 -0.000000 0.000000 0.000000 -0.000000 0.000000 0.000000 -0.000000 0.000000 0.000000 -0.000000 0.000000 0.000000 0.000000 0.000000 0.000000 0.000000 0.000000 0.000000 -0.000000 0.000000 0.000000 -0.000000 0.000000 0.000000 -0.000000 0.000000 0.000000 -0.000000 0.000000 0.000000 0.000000 0.000000 0.000000 0.000000 0.000000 0.000000 -0.000000 0.000000 61.943266 -0.000000 0.000000 0.000000 -0.000000 0.000000 0.000000 0.000000 0.000000 0.000000 -0.000000 0.000000 61.943266 -0.000000 0.000000 0.000000 -0.000000 0.000000 0.000000 0.000000 0.000000 0.000000
-25.246029 92.408823 292.358736 0.090915 -0.129864 -61.911054 -0.157374 -0.019061 61.911131 -0.000000 0.000000 0.000000 1.085351 0.029778 -0.324536 0.000000 0.000000 0.000000 -0.000000 0.000000 0.000000 -0.000000 0.000000 0.000000 -0.000000 0.000000 0.000000 0.126791 -1.115728 -0.211386 0.000000 0.000000 0.000000 0.000000 0.000000 0.000000 -0.000000 0.000000 0.000000 -0.000000 0.000000 0.000000 -1.384500 2.484320 -0.507690 3.495500 -4.817533 0.754971 0.000000 0.000000 0.000000 0.000000 0.000000 0.000000 -0.157374 -0.019061 61.911131 -0.000000 0.000000 0.000000 -0.000000 0.000000 0.000000 0.000000 0.000000 0.000000 -0.157374 -0.019061 61.911131 -0.000000 0.000000 0.000000 -8.089736 0.455893 0.211772 0.000000 0.000000 0.000000
-25.183834 92.324092 292.388717 0.166863 -0.244671 -61.907883 -0.294420 -0.031993 61.908157 -0.000000 0.000000 0.000000 2.050969 0.028474 -0.595522 0.000000 0.000000 0.000000 -0.000000 0.000000 0.000000 -0.431067 0.822631 0.154450 0.428892 -0.823767 -0.148272 0.185739 -2.030660 -0.381392 0.000000 0.000000 0.000000 0.000000 0.000000 0.000000 -0.000000 0.000000 0.000000 -0.000000 0.000000 0.000000 -2.539482 4.626781 -0.860466 6.425934 -8.529641 1.544573 0.000000 0.000000 0.000000 0.000000 0.000000 0.000000 -0.294420 -0.031993 61.908157 -0.000000 0.000000 0.000000 -0.000000 0.000000 0.000000 0.000000 0.000000 0.000000 -0.294420 -0.031993 61.908157 -0.000000 0.000000 0.000000 -13.336973 1.465915 0.823014 0.000000 0.000000 0.000000
-25.135316 92.246536 292.410671 0.227940 -0.344530 -61.933396 -0.411258 -0.039035 61.933941 -0.000000 0.000000 0.000000 2.890922 -0.002031 -0.810330 0.000000 0.000000 0.000000 -0.000000 0.000000 0.000000 -0.564084 1.148394 0.214685 0.559890 -1.150444 -0.203411 0.177289 -2.734703 -0.510081 0.000000 0.000000 0.000000 0.000000 0.000000 0.000000 -0.000000 0.000000 0.000000 -0.000000 0.000000 0.000000 -3.464312 6.401801 -1.076473 8.734941 -11.149167 2.211812 0.000000 0.000000 0.000000 0.000000 0.000000 0.000000 -0.411258 -0.039035 61.933941 -0.000000 0.000000 0.000000 -0.000000 0.000000 0.000000 0.000000 0.000000 0.000000 -0.411258 -0.039035 61.933941 -0.000000 0.000000 0.000000 -16.186022 2.978378 1.821855 0.000000 0.000000 0.000000
-25.100477 92.176156 292.424597 0.274229 -0.429542 -61.987245 -0.508013 -0.040362 61.988094 -0.000000 0.000000 0.000000 3.600568 -0.059918 -0.967050 0.000000 0.000000 0.000000 -0.000000 0.000000 0.000000 -0.642626 1.419468 0.263047 0.636299 -1.422315 -0.247188 0.102415 -3.221119 -0.597377 0.000000 0.000000 0.000000 0.000000 0.000000 0.000000 -0.000000 0.000000 0.000000 -0.000000 0.000000 0.000000 -4.156893 7.790431 -1.170952 10.364214 -12.700599 2.628217 0.000000 0.000000 0.000000 0.000000 0.000000 0.000000 -0.508013 -0.040362 61.988094 -0.000000 0.000000 0.000000 -0.000000 0.000000 0.000000 0.000000 0.000000 0.000000 -0.508013 -0.040362 61.988094 -0.000000 0.000000 0.000000 -16.977279 5.028388 3.171771 0.000000 0.000000 0.000000
-25.079315 92.112952 292.430497 0.305805 -0.499793 -62.069086 -0.584812 -0.036081 62.070236 -0.000000 0.000000 0.000000 4.176488 -0.143521 -1.064456 0.000000 0.000000 0.000000 -0.000000 0.000000 0.000000 -0.666419 1.636874 0.299171 0.658134 -1.640222 -0.280230 -0.037445 -3.486410 -0.643022 0.000000 0.000000 0.000000 0.000000 0.000000 0.000000 -0.000000 0.000000 0.000000 -0.000000 0.000000 0.000000 -4.612691 8.776968 -1.155173 11.267049 -13.201853 2.699711 0.000000 0.000000 0.000000 0.000000 0.000000 0.000000 -0.584812 -0.036081 62.070236 -0.000000 0.000000 0.000000 -0.000000 0.000000 0.000000 0.000000 0.000000 0.000000 -0.584812 -0.036081 62.070236 -0.000000 0.000000 0.000000 -15.872721 7.718372 4.812938 0.000000 0.000000 0.000000
